HIERARCHY
ROOT SpineBase
{
  OFFSET 0.000000 0.000000 0.000000
  CHANNELS 6 Xposition Yposition Zposition Zrotation Xrotation Yrotation
  JOINT SpineMid
  {
    OFFSET -0.000000 32.915206 0.000000
    CHANNELS 3 Zrotation Xrotation Yrotation
    JOINT SpineShoulder
    {
      OFFSET -0.128925 24.331722 -0.540854
      CHANNELS 3 Zrotation Xrotation Yrotation
      JOINT Neck
      {
        OFFSET -0.094610 8.054671 -0.482333
        CHANNELS 3 Zrotation Xrotation Yrotation
        JOINT Head
        {
          OFFSET -1.570045 10.090557 4.692143
          CHANNELS 3 Zrotation Xrotation Yrotation
          End Site
          {
            OFFSET 0 0 0
          }
        }
      }
      JOINT ShoulderLeft
      {
        OFFSET -7.288988 -7.015781 -13.303380
        CHANNELS 3 Zrotation Xrotation Yrotation
        JOINT ElbowLeft
        {
          OFFSET -4.175883 -27.037525 1.775919
          CHANNELS 3 Zrotation Xrotation Yrotation
          JOINT WristLeft
          {
            OFFSET -0.148258 -21.954873 15.891742
            CHANNELS 3 Zrotation Xrotation Yrotation
            JOINT HandLeft
            {
              OFFSET 0.222138 -6.037011 -1.536761
              CHANNELS 3 Zrotation Xrotation Yrotation
              JOINT HandTipLeft
              {
                OFFSET 0.815923 -4.198735 2.607160
                CHANNELS 3 Zrotation Xrotation Yrotation
                End Site
                {
                  OFFSET 0 0 0
                }
              }
              JOINT ThumbLeft
              {
                OFFSET -1.283424 3.523072 -4.676756
                CHANNELS 3 Zrotation Xrotation Yrotation
                End Site
                {
                  OFFSET 0 0 0
                }
              }
            }
          }
        }
      }
      JOINT ShoulderRight
      {
        OFFSET -2.302033 -4.328613 -11.761181
        CHANNELS 3 Zrotation Xrotation Yrotation
        JOINT ElbowRight
        {
          OFFSET -7.413539 -26.058264 -2.240725
          CHANNELS 3 Zrotation Xrotation Yrotation
          JOINT WristRight
          {
            OFFSET -4.963384 -18.248353 7.662508
            CHANNELS 3 Zrotation Xrotation Yrotation
            JOINT HandRight
            {
              OFFSET 3.502507 -6.962010 4.296015
              CHANNELS 3 Zrotation Xrotation Yrotation
              JOINT HandTipRight
              {
                OFFSET -0.650343 -3.924417 0.538114
                CHANNELS 3 Zrotation Xrotation Yrotation
                End Site
                {
                  OFFSET 0 0 0
                }
              }
              JOINT ThumbRight
              {
                OFFSET 1.383408 -4.952688 -7.618996
                CHANNELS 3 Zrotation Xrotation Yrotation
                End Site
                {
                  OFFSET 0 0 0
                }
              }
            }
          }
        }
      }
    }
  }
  JOINT HipLeft
  {
    OFFSET -6.719387 0.839327 -3.508354
    CHANNELS 3 Zrotation Xrotation Yrotation
    JOINT KneeLeft
    {
      OFFSET 27.689317 -30.705930 9.340842
      CHANNELS 3 Zrotation Xrotation Yrotation
      JOINT AnkleLeft
      {
        OFFSET 10.926457 -33.751924 2.671709
        CHANNELS 3 Zrotation Xrotation Yrotation
        JOINT FootLeft
        {
          OFFSET 2.506936 -3.683312 -12.637516
          CHANNELS 3 Zrotation Xrotation Yrotation
          End Site
          {
            OFFSET 0 0 0
          }
        }
      }
    }
  }
  JOINT HipRight
  {
    OFFSET 4.688548 0.755234 -1.906244
    CHANNELS 3 Zrotation Xrotation Yrotation
    JOINT KneeRight
    {
      OFFSET -1.876229 -32.485767 -3.832524
      CHANNELS 3 Zrotation Xrotation Yrotation
      JOINT AnkleRight
      {
        OFFSET 10.825660 -33.653559 -5.036330
        CHANNELS 3 Zrotation Xrotation Yrotation
        JOINT FootRight
        {
          OFFSET -4.186207 -7.742364 -0.607171
          CHANNELS 3 Zrotation Xrotation Yrotation
          End Site
          {
            OFFSET 0 0 0
          }
        }
      }
    }
  }
}
MOTION
Frames: 6
Frame Time: 0.033333
119.014773 71.627802 330.383509 0.777723 -0.566600 -15.290223 0.214817 -0.227205 15.311732 0.286735 0.182738 0.044648 -0.054588 -2.983087 -1.155431 0.000000 0.000000 0.000000 -2.460689 6.247091 -0.929383 1.572068 -6.577555 1.191520 -5.697351 9.988779 2.068524 -8.225385 -11.240752 -12.438608 0.000000 0.000000 0.000000 0.000000 0.000000 0.000000 -0.379103 -1.547759 0.507212 4.477155 5.360170 0.468912 15.958314 -1.814141 12.338451 -27.386867 -18.664480 -9.718541 0.000000 0.000000 0.000000 0.000000 0.000000 0.000000 -0.899624 0.341401 15.296749 -2.918939 3.237600 0.909302 -0.188557 -7.808537 7.347455 0.000000 0.000000 0.000000 -1.769146 3.937571 15.103266 -0.645675 -3.155181 0.447271 -1.232350 2.398845 -1.660032 0.000000 0.000000 0.000000
119.058584 71.609480 330.301373 0.759464 -0.595406 -15.063956 0.226669 -0.231005 15.085162 0.295484 0.177766 0.044529 -0.322046 -2.944475 -1.036193 0.000000 0.000000 0.000000 -2.067861 5.879470 -0.866047 1.118207 -5.970252 1.044312 -5.933663 10.027617 2.190440 -7.008911 -8.440599 -11.057616 0.000000 0.000000 0.000000 0.000000 0.000000 0.000000 -0.487378 -1.398549 0.483783 4.511747 5.096317 0.524633 15.773958 -1.320850 12.253703 -26.684848 -19.111837 -9.740723 0.000000 0.000000 0.000000 0.000000 0.000000 0.000000 -0.888127 0.377510 15.070828 -2.946847 3.218126 0.901043 0.332284 -6.214878 6.411781 0.000000 0.000000 0.000000 -1.660519 3.942882 14.868766 -0.856074 -3.235880 0.419543 -1.219677 3.252392 -1.992934 0.000000 0.000000 0.000000
119.112580 71.580448 330.214806 0.746416 -0.631190 -15.382860 0.237336 -0.237983 15.403833 0.300368 0.170196 0.044124 -0.544347 -2.924928 -0.940161 0.000000 0.000000 0.000000 -1.545293 5.307860 -0.765357 0.395611 -4.548269 0.742982 -5.953188 6.646432 2.080611 -5.131218 -1.925255 -8.459826 0.000000 0.000000 0.000000 0.000000 0.000000 0.000000 -0.519834 -1.276446 0.467140 4.071989 4.698782 0.480108 12.683532 0.619546 10.824338 -22.833004 -22.245715 -9.159081 0.000000 0.000000 0.000000 0.000000 0.000000 0.000000 -0.805875 -0.263895 14.754260 -2.912274 3.844176 1.566161 0.988213 -4.143342 5.332803 0.000000 0.000000 0.000000 -1.645751 3.972373 15.184605 -1.016480 -3.365289 0.388554 -1.327849 3.939977 -2.220859 0.000000 0.000000 0.000000
119.188649 71.566236 330.123408 0.769705 -0.665693 -15.713441 0.245058 -0.248131 15.735223 0.300689 0.156389 0.044646 -0.858524 -2.928566 -0.821045 0.000000 0.000000 0.000000 -1.093850 4.664050 -0.649473 -0.100928 -3.849641 0.583398 -5.935271 4.850323 1.925127 -1.672090 1.312272 -5.390012 0.000000 0.000000 0.000000 0.000000 0.000000 0.000000 -0.576622 -1.126053 0.442819 3.898588 4.521114 0.463901 12.634258 0.788596 10.749744 -22.169530 -21.738286 -9.067292 0.000000 0.000000 0.000000 0.000000 0.000000 0.000000 -0.889051 -0.356426 14.973733 -2.853905 3.910312 1.673157 1.806709 -1.681513 4.027307 0.000000 0.000000 0.000000 -1.707754 3.924607 15.523113 -1.036572 -3.361377 0.369185 -1.473098 4.295092 -2.337492 0.000000 0.000000 0.000000
119.269478 71.519453 330.038639 0.803590 -0.699850 -16.975630 0.244895 -0.259806 16.998344 0.297080 0.143542 0.044866 -1.135317 -2.945694 -0.717257 0.000000 0.000000 0.000000 -0.694989 4.037185 -0.532237 -0.534440 -3.164511 0.437897 -6.342417 3.076650 1.890649 2.787957 1.038324 -3.055757 0.000000 0.000000 0.000000 0.000000 0.000000 0.000000 -0.581033 -0.982934 0.417445 3.645456 4.362264 0.432558 13.345207 1.284633 11.233305 -23.116998 -21.646389 -9.709208 0.000000 0.000000 0.000000 0.000000 0.000000 0.000000 -0.868560 -0.557411 16.044498 -2.872147 4.104685 1.873673 1.131049 -3.629631 5.212966 0.000000 0.000000 0.000000 -1.937742 3.888865 16.803929 -0.904508 -3.362190 0.361055 -1.858545 4.492083 -2.396933 0.000000 0.000000 0.000000
119.360094 71.528795 329.953544 0.829342 -0.717627 -18.059686 0.239242 -0.271482 18.083006 0.287554 0.132102 0.044502 -1.199992 -3.020855 -0.706354 0.000000 0.000000 0.000000 -0.365664 3.460830 -0.423936 -0.875418 -2.547877 0.315774 -5.584053 0.214681 1.442778 4.345944 5.382362 -1.093346 0.000000 0.000000 0.000000 0.000000 0.000000 0.000000 -0.551839 -0.877974 0.396737 3.412593 4.253057 0.398276 13.904730 0.991261 11.362393 -23.479868 -21.331294 -9.623305 0.000000 0.000000 0.000000 0.000000 0.000000 0.000000 -0.917151 -0.751917 16.950679 -2.827178 4.263596 2.058904 1.089112 -3.646543 5.435935 0.000000 0.000000 0.000000 -2.105071 3.801653 17.903650 -0.837657 -3.314751 0.357339 -1.701813 4.734505 -2.549949 0.000000 0.000000 0.000000
